<svg xmlns="http://www.w3.org/2000/svg" xmlns:xlink="http://www.w3.org/1999/xlink" version="1.1" enable-background="new 0 0 5 5" xml:space="preserve" width="4" height="2" style=""><rect id="backgroundrect" width="100%" height="100%" x="0" y="0" fill="none" stroke="none" style="" class=""/><g class="currentLayer" style=""><title>Layer 1</title><g id="svg_1" class="selected" fill="#ffffff" fill-opacity="1"><path fill="#ffffff" d="M4.434656143188477,1.9685311317443848 c-0.07699999958276749,-0.07000000029802322 -0.15700000524520874,-0.13199999928474426 -0.23499999940395355,-0.1979999989271164 c-0.07999999821186066,-0.07400000095367432 -0.12600000202655792,-0.1899999976158142 -0.20999999344348907,-0.26899999380111694 c-0.07800000160932541,-0.07800000160932541 -0.16899999976158142,-0.10000000149011612 -0.24500000476837158,-0.1889999955892563 C3.6946561336517334,1.2495312690734863 3.6716561317443848,1.1665313243865967 3.6146562099456787,1.1095311641693115 C3.5666563510894775,1.0635311603546143 3.5106563568115234,1.0555312633514404 3.4556562900543213,1.081531286239624 C3.358656167984009,1.1335313320159912 3.3196561336517334,1.0925312042236328 3.2476563453674316,1.0015313625335693 C3.1166563034057617,0.8365311622619629 2.980656147003174,0.6635313034057617 2.900656223297119,0.456531286239624 C2.8896563053131104,0.42253124713897705 2.8646562099456787,0.4075312614440918 2.834656238555908,0.42753124237060547 c-0.08100000023841858,0.05000000074505806 -0.1289999932050705,0.11999999731779099 -0.15800000727176666,0.210999995470047 C2.5796563625335693,0.42753124237060547 2.594656229019165,0.09753119945526123 2.3666563034057617,0.017531275749206543 C2.2506563663482666,-0.01946878433227539 2.1366562843322754,0.013531208038330078 2.042656183242798,0.08353126049041748 C1.8946561813354492,0.19253122806549072 1.8716561794281006,0.4155312776565552 1.7576563358306885,0.5515313148498535 C1.6956562995910645,0.6295311450958252 1.622656226158142,0.6295311450958252 1.5586562156677246,0.6955313682556152 C1.4806562662124634,0.770531177520752 1.3966562747955322,0.8445312976837158 1.3216562271118164,0.9235312938690186 C1.2276562452316284,1.022531270980835 1.1806561946868896,1.1295311450958252 1.038656234741211,1.1225311756134033 c-0.0820000022649765,0 -0.1589999943971634,-0.02500000037252903 -0.23999999463558197,-0.020999999716877937 C0.6436562538146973,1.1095311641693115 0.5176562666893005,1.340531349182129 0.4336562752723694,1.4685311317443848 C0.3036562204360962,1.6795313358306885 0.20665624737739563,1.8815312385559082 0.0006562471389770508,2.009531259536743 c-0.004000000189989805,0 0,0.013000000268220901 0.008999999612569809,0.008999999612569809 c0.14000000059604645,-0.06599999964237213 0.25200000405311584,-0.16599999368190765 0.35499998927116394,-0.2930000126361847 C0.41465622186660767,1.6635313034057617 0.46265625953674316,1.6015312671661377 0.5176562666893005,1.5395312309265137 c0.08699999749660492,-0.10400000214576721 0.15800000727176666,-0.14800000190734863 0.2840000092983246,-0.14800000190734863 c0.07100000232458115,0 0.13699999451637268,0.012000000104308128 0.20800000429153442,0.019999999552965164 c0.08699999749660492,0.014000000432133675 0.1599999964237213,-0.04899999871850014 0.22499999403953552,-0.10300000011920929 C1.219656229019165,1.3445312976837158 1.2016562223434448,1.3825311660766602 1.187656283378601,1.4155311584472656 C1.1406562328338623,1.5315313339233398 1.1586562395095825,1.6795313358306885 1.0866562128067017,1.7825312614440918 C1.0766562223434448,1.7995312213897705 1.093656301498413,1.8195312023162842 1.1056562662124634,1.8075313568115234 c0.0560000017285347,-0.07000000029802322 0.14300000667572021,-0.0949999988079071 0.20399999618530273,-0.16099999845027924 c0.06199999898672104,-0.07000000029802322 0.1120000034570694,-0.14100000262260437 0.1589999943971634,-0.23000000417232513 c0.08299999684095383,-0.15800000727176666 0.21299999952316284,-0.3269999921321869 0.2549999952316284,-0.5049999952316284 c0.013000000268220901,-0.008999999612569809 0.02199999988079071,-0.017000000923871994 0.03799999877810478,-0.020999999716877937 C1.7966561317443848,0.8705313205718994 1.8326561450958252,0.8495311737060547 1.8686561584472656,0.8205313682556152 c0.00800000037997961,0.03700000047683716 0.054999999701976776,0.05000000074505806 0.07599999755620956,0.00800000037997961 c0.11400000005960464,-0.19300000369548798 0.1940000057220459,-0.4129999876022339 0.3310000002384186,-0.5910000205039978 c0.02199999988079071,0.04500000178813934 0.039000000804662704,0.09600000083446503 0.06400000303983688,0.14499999582767487 C2.337656259536743,0.47353124618530273 2.356656312942505,0.5645313262939453 2.356656312942505,0.6545312404632568 c0,0.13300000131130219 -0.02199999988079071,0.25699999928474426 -0.01899999938905239,0.38999998569488525 c0.009999999776482582,0.2759999930858612 0.09399999678134918,0.49900001287460327 -0.0430000014603138,0.7599999904632568 C2.283656358718872,1.8245313167572021 2.3086562156677246,1.8445312976837158 2.3246562480926514,1.829531192779541 C2.482656240463257,1.6175312995910645 2.612656354904175,1.4155311584472656 2.6336562633514404,1.1375312805175781 c0.007000000216066837,-0.00800000037997961 0.010999999940395355,-0.012000000104308128 0.017999999225139618,-0.019999999552965164 c0.03200000151991844,-0.03700000047683716 0.057999998331069946,-0.08399999886751175 0.07999999821186066,-0.13300000131130219 c0.0430000014603138,-0.09099999815225601 0.09700000286102295,-0.16899999976158142 0.15000000596046448,-0.24699999392032623 C2.8966562747955322,0.7795312404632568 2.913656234741211,0.8165311813354492 2.9286563396453857,0.8535313606262207 c-0.009999999776482582,0.024000000208616257 -0.014999999664723873,0.057999998331069946 -0.009999999776482582,0.08699999749660492 c0.020999999716877937,0.10400000214576721 0,0.21899999678134918 -0.004999999888241291,0.32199999690055847 c-0.004000000189989805,0.11999999731779099 -0.004000000189989805,0.22300000488758087 -0.05299999937415123,0.33399999141693115 c-0.013000000268220901,0.02500000037252903 0.009999999776482582,0.05000000074505806 0.03200000151991844,0.03700000047683716 c0.09000000357627869,-0.04899999871850014 0.1809999942779541,-0.1860000044107437 0.23100000619888306,-0.296999990940094 c0.010999999940395355,0 0.020999999716877937,-0.004999999888241291 0.028999999165534973,-0.004999999888241291 c0.0560000017285347,-0.01600000075995922 0.11400000005960464,-0.019999999552965164 0.16500000655651093,-0.05299999937415123 c0.05000000074505806,0.01600000075995922 0.09799999743700027,0.020999999716877937 0.14000000059604645,0 C3.534656286239624,1.2415311336517334 3.5756561756134033,1.3655312061309814 3.6186561584472656,1.4195313453674316 c0.03200000151991844,0.04500000178813934 0.10499999672174454,0.0820000022649765 0.12600000202655792,0.14000000059604645 C3.7626562118530273,1.6175312995910645 3.791656017303467,1.6555311679840088 3.8266563415527344,1.6925313472747803 c0.17399999499320984,0.18199999630451202 0.35600000619888306,0.25200000405311584 0.5740000009536743,0.34299999475479126 C4.434656143188477,2.0465312004089355 4.459656238555908,1.9945311546325684 4.434656143188477,1.9685311317443848 z" id="svg_2" fill-opacity="1"/></g></g></svg>