<svg xmlns="http://www.w3.org/2000/svg" xmlns:xlink="http://www.w3.org/1999/xlink" version="1.1" enable-background="new 0 0 5 5" xml:space="preserve" width="5" height="3"><rect id="backgroundrect" width="100%" height="100%" x="0" y="0" fill="none" stroke="none" style="" class=""/><g class="currentLayer" style=""><title>Layer 1</title><g id="svg_1" class="selected" fill="#ffffff" fill-opacity="1"><path fill="#ffffff" d="M3.811406135559082,1.6159062385559082 C3.641406297683716,1.4219062328338623 3.438406229019165,1.2739062309265137 3.245406150817871,1.1109063625335693 c-0.2619999945163727,-0.20999999344348907 -0.5960000157356262,0.17399999499320984 -0.7620000243186951,0.3720000088214874 c-0.421999990940094,0.5130000114440918 -0.9789999723434448,0.8399999737739563 -1.6039999723434448,0.9259999990463257 c-0.05299999937415123,0.008999999612569809 -0.05299999937415123,0.10000000149011612 0.006000000052154064,0.10000000149011612 C1.4344062805175781,2.50390625 1.9624061584472656,2.367906332015991 2.456406354904175,2.0909061431884766 c0.23000000417232513,-0.13199999928474426 0.39800000190734863,-0.3630000054836273 0.6190000176429749,-0.515999972820282 C3.133406162261963,1.5299062728881836 3.323406219482422,1.4089062213897705 3.376406192779541,1.4089062213897705 c0.1599999964237213,0 0.30300000309944153,0.12099999934434891 0.4180000126361847,0.2240000069141388 C3.805406332015991,1.6459062099456787 3.823406219482422,1.627906322479248 3.811406135559082,1.6159062385559082 z" id="svg_2" fill-opacity="1"/><path fill="#ffffff" d="M2.702406167984009,1.3519062995910645 C2.6574063301086426,1.2399063110351562 2.567406177520752,1.132906198501587 2.504406213760376,1.0329062938690186 c-0.07000000029802322,-0.11500000208616257 -0.16599999368190765,-0.2199999988079071 -0.27000001072883606,-0.2980000078678131 C2.131406307220459,0.660906195640564 2.0244061946868896,0.6199063062667847 1.9014062881469727,0.6079062223434448 c-0.15600000321865082,-0.01600000075995922 -0.289000004529953,0.07000000029802322 -0.4180000126361847,0.16500000655651093 c-0.4819999933242798,0.36000001430511475 -0.8709999918937683,0.8519999980926514 -1.4550000429153442,1.0299999713897705 c-0.04500000178813934,0.01600000075995922 -0.03700000047683716,0.09000000357627869 0.009999999776482582,0.0860000029206276 c0.5,-0.020999999716877937 0.9919999837875366,-0.23899999260902405 1.4299999475479126,-0.4909999966621399 c0.11500000208616257,-0.07000000029802322 0.23000000417232513,-0.1459999978542328 0.34599998593330383,-0.2199999988079071 c0.07999999821186066,-0.04899999871850014 0.15800000727176666,-0.10400000214576721 0.25200000405311584,-0.09000000357627869 c0.11699999868869781,0.019999999552965164 0.22100000083446503,0.0820000022649765 0.3199999928474426,0.14000000059604645 C2.4834063053131104,1.2809062004089355 2.567406177520752,1.3639061450958252 2.6654062271118164,1.4089062213897705 C2.698406219482422,1.4219062328338623 2.7134063243865967,1.375906229019165 2.702406167984009,1.3519062995910645 z" id="svg_3" fill-opacity="1"/><path fill="#ffffff" d="M1.7904062271118164,0.9829063415527344 c0.12700000405311584,-0.21899999678134918 0.33799999952316284,-0.4000000059604645 0.5080000162124634,-0.5730000138282776 C2.4754061698913574,0.2279062271118164 2.676406145095825,0.012906193733215332 2.934406280517578,0.0009062290191650391 c0.33000001311302185,-0.020999999716877937 0.5490000247955322,0.3619999885559082 0.7480000257492065,0.5950000286102295 C3.7944061756134033,0.7279062271118164 3.9264063835144043,0.8389062881469727 4.061406135559082,0.9309062957763672 C4.206406116485596,1.0289063453674316 4.434406280517578,1.1449062824249268 4.608406066894531,1.1449062824249268 c0.028999999165534973,0 0.03700000047683716,0.054999999701976776 0.004000000189989805,0.05900000035762787 C4.553406238555908,1.2109062671661377 4.501406192779541,1.2399063110351562 4.438406467437744,1.24790620803833 C4.350406169891357,1.255906343460083 4.272406101226807,1.2609062194824219 4.186406135559082,1.251906156539917 C4.024406433105469,1.2399063110351562 3.868406295776367,1.190906286239624 3.7194063663482666,1.1159062385559082 C3.430406332015991,0.9759061336517334 3.2724063396453857,0.690906286239624 3.0304062366485596,0.48390626907348633 C2.954406261444092,0.4219062328338623 2.872406244277954,0.3309062719345093 2.7724063396453857,0.3219062089920044 c-0.12300000339746475,-0.00800000037997961 -0.25999999046325684,0.05900000035762787 -0.3630000054836273,0.12099999934434891 c-0.23600000143051147,0.14399999380111694 -0.38100001215934753,0.3919999897480011 -0.5899999737739563,0.5649999976158142 C1.8014062643051147,1.0249061584472656 1.7724062204360962,1.004906177520752 1.7904062271118164,0.9829063415527344 z" id="svg_4" fill-opacity="1"/></g></g></svg>