<svg xmlns="http://www.w3.org/2000/svg" xmlns:xlink="http://www.w3.org/1999/xlink" version="1.1" enable-background="new 0 0 100 100" xml:space="preserve" width="92" height="62"><rect id="backgroundrect" width="100%" height="100%" x="0" y="0" fill="none" stroke="none" style="" class=""/><g class="currentLayer" style=""><title>Layer 1</title><path d="M35.11111116409302,62 c-2.5,0 -3.0999999046325684,-2.200000047683716 -4.400000095367432,-30.299999237060547 c-0.4000000059604645,-8.5 -0.8999999761581421,-19.399999618530273 -1.7000000476837158,-25.200000762939453 c-0.5,4 -0.8999999761581421,10.399999618530273 -1.2000000476837158,15.5 C26.71110963821411,41.20000076293945 26.111111164093018,46 23.111111164093018,46 c-3.200000047683716,0 -3.9000000953674316,-4.599999904632568 -4.599999904632568,-9.399999618530273 c-0.30000001192092896,-2.200000047683716 -0.800000011920929,-5.800000190734863 -1.5,-6.599999904632568 c-0.699999988079071,0.20000000298023224 -1.2999999523162842,2.200000047683716 -1.7000000476837158,3.5999999046325684 C14.611111164093018,36.099998474121094 13.81111192703247,39 11.111111164093018,39 c-2.200000047683716,0 -3.200000047683716,-1.2000000476837158 -3.799999952316284,-1.899999976158142 c-0.6000000238418579,-0.699999988079071 -0.8999999761581421,-1.100000023841858 -2.200000047683716,-1.100000023841858 h-5 C-0.6888890266418457,36 -1.3888888359069824,35.29999923706055 -1.3888888359069824,34.5 S-0.6888890266418457,33 0.11111116409301758,33 h5 c2.700000047683716,0 3.700000047683716,1.2999999523162842 4.400000095367432,2.0999999046325684 c0.5,0.6000000238418579 0.699999988079071,0.8999999761581421 1.600000023841858,0.8999999761581421 c0.5,-0.20000000298023224 1.100000023841858,-2.200000047683716 1.2999999523162842,-3.200000047683716 c0.800000011920929,-2.5999999046325684 1.7000000476837158,-5.800000190734863 4.699999809265137,-5.800000190734863 c3.0999999046325684,0 3.700000047683716,4.199999809265137 4.400000095367432,9.100000381469727 c0.30000001192092896,1.7999999523162842 0.699999988079071,5 1.2999999523162842,6.300000190734863 c1,-3.200000047683716 1.600000023841858,-13.600000381469727 2,-20.700000762939453 c1,-17.600000381469727 1.5,-21.700000762939453 4.199999809265137,-21.700000762939453 c2.5999999046325684,0 3.200000047683716,2.5 4.599999904632568,31.5 c0.4000000059604645,7.800000190734863 0.8999999761581421,17.700000762939453 1.5,23.399999618530273 c0.6000000238418579,-4.599999904632568 1,-11.800000190734863 1.2999999523162842,-17.5 C37.81111192703247,15.299999237060547 38.411110401153564,12 41.11111116409302,12 c2.799999952316284,0 3.299999952316284,4.5 4.199999809265137,17.5 c0.4000000059604645,5.400000095367432 1,13.199999809265137 1.899999976158142,15.899999618530273 c0.6000000238418579,-1.7000000476837158 1,-5.699999809265137 1.2999999523162842,-8.300000190734863 c0.699999988079071,-6.800000190734863 1.2000000476837158,-12.100000381469727 4.599999904632568,-12.100000381469727 c3.299999952316284,0 3.799999952316284,4.099999904632568 4.300000190734863,8 c0.30000001192092896,2.0999999046325684 0.699999988079071,6 1.7000000476837158,6 c1,0 1.399999976158142,-2 1.7999999523162842,-4.599999904632568 c0.5,-2.9000000953674316 1.100000023841858,-6.400000095367432 4.199999809265137,-6.400000095367432 c3.0999999046325684,0 4,3 4.599999904632568,5.199999809265137 c0.4000000059604645,1.2000000476837158 0.800000011920929,2.799999952316284 1.399999976158142,2.799999952316284 c0.8999999761581421,0 1.2999999523162842,-0.6000000238418579 2.0999999046325684,-2 c0.699999988079071,-1.2999999523162842 1.7000000476837158,-3 3.9000000953674316,-3 c1.7999999523162842,0 2.700000047683716,0.699999988079071 3.4000000953674316,1.2000000476837158 c0.699999988079071,0.5 1.2000000476837158,0.800000011920929 2.5999999046325684,0.800000011920929 h6 c0.800000011920929,0 1.5,0.699999988079071 1.5,1.5 S89.91111421585083,36 89.11111116409302,36 h-6 c-2.4000000953674316,0 -3.5,-0.800000011920929 -4.300000190734863,-1.399999976158142 c-0.6000000238418579,-0.4000000059604645 -0.8999999761581421,-0.6000000238418579 -1.7000000476837158,-0.6000000238418579 c-0.4000000059604645,0 -0.699999988079071,0.5 -1.2999999523162842,1.5 c-0.800000011920929,1.399999976158142 -2,3.5 -4.699999809265137,3.5 c-2.799999952316284,0 -3.700000047683716,-2.9000000953674316 -4.300000190734863,-4.900000095367432 c-0.6000000238418579,-2.0999999046325684 -1,-3.0999999046325684 -1.7000000476837158,-3.0999999046325684 c-0.6000000238418579,0 -1,2.5999999046325684 -1.2000000476837158,3.9000000953674316 c-0.5,3 -1.2000000476837158,7.099999904632568 -4.800000190734863,7.099999904632568 c-3.5999999046325684,0 -4.199999809265137,-4.599999904632568 -4.699999809265137,-8.600000381469727 c-0.20000000298023224,-1.7000000476837158 -0.6000000238418579,-4.699999809265137 -1.2000000476837158,-5.300000190734863 c-0.8999999761581421,1.100000023841858 -1.399999976158142,6.199999809265137 -1.7000000476837158,9.300000190734863 C50.81111192703247,44.099998474121094 50.31111192703247,49 47.11111116409302,49 c-3.0999999046325684,0 -3.700000047683716,-5 -4.800000190734863,-19.299999237060547 c-0.30000001192092896,-4 -0.699999988079071,-9.100000381469727 -1.2000000476837158,-12.199999809265137 c-0.699999988079071,4.5 -1.2000000476837158,13.300000190734863 -1.7000000476837158,20.100000381469727 C38.21110963821411,58.80000305175781 37.61111116409302,62 35.11111116409302,62 z" id="svg_1" class="" fill="#ffffff" fill-opacity="1"/></g></svg>