<svg xmlns="http://www.w3.org/2000/svg" xmlns:xlink="http://www.w3.org/1999/xlink" version="1.1" enable-background="new 0 0 100 100" xml:space="preserve" width="83" height="47"><rect id="backgroundrect" width="100%" height="100%" x="0" y="0" fill="none" stroke="none" style="" class=""/><g class="currentLayer" style=""><title>Layer 1</title><g id="svg_1" class="selected" fill="#ffffff" fill-opacity="1"><path d="M82.9569091796875,13.060001373291016 c-0.21299999952316284,-0.3009999990463257 -0.5329999923706055,-0.08799999952316284 -0.5329999923706055,-0.08799999952316284 c-1.465000033378601,0.9940000176429749 -3.7709999084472656,2.3340001106262207 -6.426000118255615,2.3340001106262207 c-5.395999908447266,0.0560000017285347 -10.907999992370605,-5.9070000648498535 -14.196999549865723,-9.385000228881836 c-2.2750000953674316,-2.4059998989105225 -3.0999999046325684,-3.2239999771118164 -3.7929999828338623,-2.8959999084472656 c-3.4079999923706055,1.687000036239624 -4.195000171661377,4.40500020980835 -4.956999778747559,7.0320000648498535 c-0.17399999499320984,0.6069999933242798 -0.28299999237060547,1.2230000495910645 -0.41600000858306885,1.8329999446868896 c-1.5329999923706055,-0.12999999523162842 -3.1429998874664307,-1.0479999780654907 -4.1539998054504395,-2.0480000972747803 c-0.5799999833106995,-0.5529999732971191 -0.9860000014305115,-1.4040000438690186 -1.38100004196167,-2.0510001182556152 c-0.7540000081062317,-1.2369999885559082 -1.531000018119812,-2.5160000324249268 -3.507999897003174,-2.9059998989105225 c-0.3790000081062317,-0.06800000369548798 -0.6949999928474426,0.45899999141693115 -1.5219999551773071,2.002000093460083 c-0.8429999947547913,1.5729999542236328 -1.4320000410079956,2.4110000133514404 -2.132999897003174,3.2929999828338623 c-1.694000005722046,-3.8420000076293945 -4.228000164031982,-7.335000038146973 -8.607000350952148,-9.961999893188477 c-1.746999979019165,-0.996999979019165 -3.7060000896453857,1.350000023841858 -9.11299991607666,8.28499984741211 c-2.117000102996826,2.7170000076293945 -4.5329999923706055,5.811999797821045 -7.171000003814697,8.901000022888184 c-0.27300000190734863,-0.37299999594688416 -0.5249999761581421,-0.7699999809265137 -0.7289999723434448,-1.1640000343322754 c-0.3709999918937683,-0.6819999814033508 -0.5479999780654907,-1.4199999570846558 -0.718999981880188,-2.132999897003174 c-0.328000009059906,-1.3669999837875366 -0.6669999957084656,-2.7799999713897705 -2.378999948501587,-3.7279999256134033 c-0.34700000286102295,-0.18799999356269836 -0.9869999885559082,0.33799999952316284 -2.7929999828338623,1.86899995803833 c-1.3509999513626099,1.1449999809265137 -3.0320000648498535,2.569999933242798 -4.669000148773193,3.622999906539917 c0,0 -0.2199999988079071,0.13699999451637268 -0.0820000022649765,0.24899999797344208 c0.3889999985694885,0.31299999356269836 2.7829999923706055,-1.6979999542236328 3.9019999504089355,-2.631999969482422 c0.23800000548362732,-0.19900000095367432 0.4580000042915344,-0.38499999046325684 0.6830000281333923,-0.574999988079071 l0.0020000000949949026,0.0020000000949949026 c0.12300000339746475,-0.09399999678134918 0.2540000081062317,-0.1459999978542328 0.36899998784065247,-0.1459999978542328 c0.08299999684095383,0 0.14000000059604645,0.026000000536441803 0.1599999964237213,0.05299999937415123 c0.06800000369548798,0.08900000154972076 0.017000000923871994,0.35899999737739563 -0.024000000208616257,0.578000009059906 c-0.052000001072883606,0.2750000059604645 -0.10199999809265137,0.5370000004768372 -0.009999999776482582,0.7070000171661377 c0.10300000011920929,0.17599999904632568 0.21400000154972076,0.2619999945163727 0.34200000762939453,0.2619999945163727 c0.20000000298023224,0 0.3610000014305115,-0.21299999952316284 0.5479999780654907,-0.46000000834465027 c0.20800000429153442,-0.27399998903274536 0.4449999928474426,-0.5879999995231628 0.7300000190734863,-0.5879999995231628 c0.07599999755620956,0 0.15299999713897705,0.020999999716877937 0.23100000619888306,0.06199999898672104 c0.10300000011920929,0.05999999865889549 0.1889999955892563,0.21400000154972076 0.2720000147819519,0.36399999260902405 c0.1080000028014183,0.19499999284744263 0.210999995470047,0.38199999928474426 0.3889999985694885,0.41200000047683716 c0.5019999742507935,0.05400000140070915 0.546999990940094,-0.7839999794960022 0.5669999718666077,-1.1339999437332153 c0.0020000000949949026,-0.03400000184774399 0.003000000026077032,-0.06199999898672104 0.004999999888241291,-0.07900000363588333 c0.024000000208616257,-0.24699999392032623 0.18400000035762787,-0.39500001072883606 0.4259999990463257,-0.39500001072883606 c0.21199999749660492,0 0.47999998927116394,0.13699999451637268 0.6000000238418579,0.42399999499320984 c0.13600000739097595,0.39399999380111694 0.23899999260902405,0.8040000200271606 0.3400000035762787,1.2239999771118164 c0.1770000010728836,0.7379999756813049 0.17800000309944153,1.503999948501587 0.5730000138282776,2.2279999256134033 c0.2329999953508377,0.4490000009536743 0.5929999947547913,0.902999997138977 0.9639999866485596,1.3270000219345093 c-4.059999942779541,4.7270002365112305 -8.640000343322754,9.413000106811523 -13.505999565124512,12.70199966430664 c-2.0989999771118164,1.25 -1.6790000200271606,2.9549999237060547 2.3940000534057617,-0.07999999821186066 c3.8320000171661377,-2.8550000190734863 12.444000244140625,-11.020999908447266 14.819000244140625,-13.906999588012695 c0.20900000631809235,-0.25600001215934753 0.4099999964237213,-0.5059999823570251 0.6169999837875366,-0.7590000033378601 c1.003000020980835,-1.1490000486373901 1.6419999599456787,-1.2860000133514404 1.8550000190734863,-1.2860000133514404 c0.45399999618530273,0 0.4970000088214874,0.640999972820282 0.5009999871253967,0.7680000066757202 c0.020999999716877937,0.656000018119812 -0.2240000069141388,1.5859999656677246 -0.460999995470047,2.4839999675750732 c-0.37599998712539673,1.4299999475479126 -0.7329999804496765,2.7820000648498535 -0.2800000011920929,3.686000108718872 c0.3140000104904175,0.5899999737739563 0.824999988079071,1.375 1.61899995803833,1.375 c0.9950000047683716,0 1.6699999570846558,-1.1950000524520874 2.5250000953674316,-2.7090001106262207 c0.9129999876022339,-1.6160000562667847 1.9470000267028809,-3.447999954223633 3.247999906539917,-3.447999954223633 c0.29600000381469727,0 0.6129999756813049,0.09600000083446503 0.9259999990463257,0.2750000059604645 c0.48100000619888306,0.30000001192092896 0.9279999732971191,1.1779999732971191 1.3229999542236328,1.9520000219345093 c0.5429999828338623,1.0640000104904175 1.0549999475479126,2.069999933242798 1.9179999828338623,2.193000078201294 c2.328000068664551,0.17000000178813934 2.390000104904175,-4.26200008392334 2.4100000858306885,-6.368000030517578 c0.0020000000949949026,-0.19499999284744263 0.003000000026077032,-0.35199999809265137 0.00800000037997961,-0.45100000500679016 c0.057999998331069946,-1.340000033378601 0.6809999942779541,-2.1080000400543213 1.7079999446868896,-2.1080000400543213 c1.0540000200271606,0 2.444999933242798,0.8579999804496765 3.062999963760376,2.496999979019165 c0.6140000224113464,1.9789999723434448 1.1100000143051147,4.0370001792907715 1.6100000143051147,6.13100004196167 c3.3940000534057617,15.902000427246094 11.621999740600586,25.851999282836914 16.246999740600586,25.851999282836914 c0.35499998927116394,0 1.2209999561309814,0.27900001406669617 1.2209999561309814,-0.6890000104904175 s-0.5529999732971191,-1.3179999589920044 -1.2209999561309814,-1.3179999589920044 c-4.843999862670898,0.11100000143051147 -10.930000305175781,-9.515999794006348 -14.03499984741211,-23.132999420166016 c3.7209999561309814,-0.18000000715255737 7.104000091552734,-3.7720000743865967 8.895999908447266,-6.861999988555908 c0.8379999995231628,-1.38100004196167 1.2640000581741333,-2.8510000705718994 1.6759999990463257,-4.2729997634887695 c0.05900000035762787,-0.2029999941587448 0.11699999868869781,-0.4059999883174896 0.17599999904632568,-0.6060000061988831 l0.13500000536441803,-0.3240000009536743 c0.16599999368190765,-0.2669999897480011 0.39800000190734863,-0.41499999165534973 0.4790000021457672,-0.4320000112056732 c0,0 0.00800000037997961,0.017999999225139618 0.006000000052154064,0.06599999964237213 c-0.05700000002980232,1 -0.05900000035762787,2.0820000171661377 0.37299999594688416,2.5350000858306885 c0.23000000417232513,0.22699999809265137 0.4390000104904175,0.3370000123977661 0.640999972820282,0.3370000123977661 c0.47099998593330383,0 0.6880000233650208,-0.5389999747276306 0.9390000104904175,-1.1619999408721924 c0.2849999964237213,-0.7049999833106995 0.6069999933242798,-1.5010000467300415 1.2910000085830688,-1.5010000467300415 c0.07800000160932541,0 0.16200000047683716,0.009999999776482582 0.24199999868869781,0.02800000086426735 c0.22300000488758087,0.05999999865889549 0.46299999952316284,0.3059999942779541 0.6930000185966492,0.5440000295639038 c0.29100000858306885,0.29899999499320984 0.5640000104904175,0.5820000171661377 0.8830000162124634,0.5820000171661377 l0.06199999898672104,-0.004000000189989805 c0.19300000369548798,-0.029999999329447746 0.3540000021457672,-0.13099999725818634 0.4650000035762787,-0.2919999957084656 c0.32199999690055847,-0.4659999907016754 0.19699999690055847,-1.3359999656677246 0.032999999821186066,-2.127000093460083 c-0.014000000432133675,-0.06599999964237213 -0.023000000044703484,-0.11800000071525574 -0.028999999165534973,-0.15199999511241913 c-0.04500000178813934,-0.26899999380111694 -0.004000000189989805,-0.48899999260902405 0.12099999934434891,-0.6349999904632568 c0.12300000339746475,-0.14499999582767487 0.33000001311302185,-0.22499999403953552 0.5860000252723694,-0.22499999403953552 c0.4449999928474426,0 0.9409999847412109,0.2370000034570694 1.2949999570846558,0.6169999837875366 l0.004000000189989805,-0.003000000026077032 c3.4079999923706055,3.558000087738037 8.496000289916992,8.428999900817871 13.675999641418457,8.428999900817871 c0.03500000014901161,0 0.07199999690055847,0 0.10700000077486038,-0.0020000000949949026 c2.8550000190734863,0 5.311999797821045,-1.2599999904632568 6.873000144958496,-2.315000057220459 C82.87490844726562,13.637001037597656 83.16990661621094,13.361000061035156 82.9569091796875,13.060001373291016 zM12.26690673828125,12.354000091552734 c-0.34599998593330383,0 -0.5910000205039978,0.22599999606609344 -0.6259999871253967,0.5759999752044678 c-0.0020000000949949026,0.019999999552965164 -0.003000000026077032,0.04899999871850014 -0.006000000052154064,0.08699999749660492 c-0.035999998450279236,0.6269999742507935 -0.1459999978542328,0.9459999799728394 -0.33899998664855957,0.9459999799728394 h0 c-0.07599999755620956,-0.014000000432133675 -0.164000004529953,-0.1720000058412552 -0.2409999966621399,-0.3109999895095825 c-0.09600000083446503,-0.17399999499320984 -0.19599999487400055,-0.3540000021457672 -0.35100001096725464,-0.44200000166893005 c-0.10999999940395355,-0.057999998331069946 -0.2199999988079071,-0.08799999952316284 -0.328000009059906,-0.08799999952316284 c-0.38499999046325684,0 -0.6660000085830688,0.3700000047683716 -0.890999972820282,0.6690000295639038 c-0.13500000536441803,0.17800000309944153 -0.28700000047683716,0.3790000081062317 -0.3880000114440918,0.3790000081062317 c-0.04800000041723251,0 -0.1080000028014183,-0.05700000002980232 -0.16699999570846558,-0.1589999943971634 c-0.0560000017285347,-0.10400000214576721 -0.008999999612569809,-0.3529999852180481 0.03200000151991844,-0.5709999799728394 c0.0560000017285347,-0.296999990940094 0.10899999737739563,-0.5770000219345093 -0.013000000268220901,-0.7369999885559082 c-0.057999998331069946,-0.07599999755620956 -0.16599999368190765,-0.11900000274181366 -0.2879999876022339,-0.12600000202655792 c0.007000000216066837,-0.006000000052154064 0.01600000075995922,-0.013000000268220901 0.023000000044703484,-0.019999999552965164 c0.9980000257492065,-0.8460000157356262 2.128999948501587,-1.8040000200271606 2.3420000076293945,-1.8220000267028809 c0.8519999980926514,0.47200000286102295 1.3220000267028809,1.0679999589920044 1.63100004196167,1.7289999723434448 C12.52790641784668,12.393001556396484 12.38990592956543,12.354000091552734 12.26690673828125,12.354000091552734 zM36.366905212402344,11.073001861572266 c-1.246999979019165,0 -2.61299991607666,0.8059999942779541 -2.7109999656677246,3.069000005722046 c-0.004999999888241291,0.10700000077486038 -0.006000000052154064,0.27300000190734863 -0.008999999612569809,0.48399999737739563 c-0.04699999839067459,4.678999900817871 -0.824999988079071,5.376999855041504 -1.2970000505447388,5.379000186920166 c-0.3140000104904175,-0.04500000178813934 -0.8069999814033508,-1.0110000371932983 -1.1330000162124634,-1.6510000228881836 c-0.47699999809265137,-0.9350000023841858 -0.968999981880188,-1.899999976158142 -1.7020000219345093,-2.3589999675750732 c-0.48399999737739563,-0.2750000059604645 -0.968999981880188,-0.41600000858306885 -1.4420000314712524,-0.41600000858306885 c-1.8860000371932983,0 -3.0739998817443848,2.1019999980926514 -4.122000217437744,3.9570000171661377 c-0.5239999890327454,0.9279999732971191 -1.2419999837875366,2.200000047683716 -1.6510000228881836,2.200000047683716 c-0.04699999839067459,0 -0.3050000071525574,-0.04100000113248825 -0.7269999980926514,-0.8320000171661377 c-0.2770000100135803,-0.5550000071525574 0.061000000685453415,-1.8370000123977661 0.35899999737739563,-2.9690001010894775 c0.2549999952316284,-0.9679999947547913 0.5199999809265137,-1.968999981880188 0.49399998784065247,-2.7709999084472656 c-0.03200000151991844,-1.0410000085830688 -0.6370000243186951,-1.7400000095367432 -1.503999948501587,-1.7400000095367432 c-0.004999999888241291,0 -0.009999999776482582,0 -0.014999999664723873,0 c1.0130000114440918,-1.2760000228881836 1.9830000400543213,-2.5169999599456787 2.8929998874664307,-3.684000015258789 c2.6449999809265137,-3.3919999599456787 5.629000186920166,-7.2210001945495605 6.690999984741211,-7.681000232696533 c3.493000030517578,2.1419999599456787 5.668000221252441,4.895999908447266 7.189000129699707,8.005000114440918 c0.2680000066757202,0.5799999833106995 0.5090000033378601,1.1399999856948853 0.7170000076293945,1.649999976158142 C37.76990509033203,11.305000305175781 37.068904876708984,11.073001861572266 36.366905212402344,11.073001861572266 zM42.421905517578125,7.077999114990234 c0.43799999356269836,-0.8119999766349792 0.9319999814033508,-1.7339999675750732 1.0959999561309814,-1.7979999780654907 c0.9649999737739563,0.1899999976158142 1.6089999675750732,0.6140000224113464 2.11899995803833,1.149999976158142 c-0.25999999046325684,-0.035999998450279236 -0.5410000085830688,0.05000000074505806 -0.6970000267028809,0.2460000067949295 c-0.12700000405311584,0.15600000321865082 -0.17000000178813934,0.36000001430511475 -0.12300000339746475,0.5740000009536743 c0.004000000189989805,0.01899999938905239 0.012000000104308128,0.04800000041723251 0.019999999552965164,0.08399999886751175 c0.054999999701976776,0.2070000022649765 0.19699999690055847,0.7540000081062317 0.06199999898672104,0.968999981880188 c-0.02500000037252903,0.04100000113248825 -0.05900000035762787,0.06400000303983688 -0.10899999737739563,0.07400000095367432 c-0.0820000022649765,0 -0.210999995470047,-0.12200000137090683 -0.32600000500679016,-0.23000000417232513 c-0.15000000596046448,-0.14000000059604645 -0.3050000071525574,-0.2840000092983246 -0.48399999737739563,-0.32199999690055847 c-0.6449999809265137,-0.10999999940395355 -0.8460000157356262,0.48500001430511475 -1.0080000162124634,0.953000009059906 c-0.0860000029206276,0.24699999392032623 -0.17599999904632568,0.5019999742507935 -0.28700000047683716,0.5019999742507935 c-0.032999999821186066,0 -0.09600000083446503,-0.019999999552965164 -0.19300000369548798,-0.1080000028014183 c-0.09600000083446503,-0.09200000017881393 -0.11100000143051147,-0.3580000102519989 -0.125,-0.5730000138282776 c-0.014000000432133675,-0.24400000274181366 -0.027000000700354576,-0.45399999618530273 -0.13300000131130219,-0.5609999895095825 c-0.050999999046325684,-0.052000001072883606 -0.1289999932050705,-0.08100000023841858 -0.2160000056028366,-0.08100000023841858 c-0.01899999938905239,0 -0.04600000008940697,0.003000000026077032 -0.07400000095367432,0.008999999612569809 C42.110904693603516,7.653999328613281 42.274906158447266,7.352001190185547 42.421905517578125,7.077999114990234 zM51.82190704345703,14.144001007080078 c-1.7170000076293945,2.9590001106262207 -5.2870001792907715,6.40500020980835 -8.744000434875488,6.479000091552734 c-0.027000000700354576,-0.1289999932050705 -0.05900000035762787,-0.2540000081062317 -0.0860000029206276,-0.38499999046325684 c-0.7620000243186951,-3.190999984741211 -1.5369999408721924,-6.427000045776367 -2.7990000247955322,-9.46500015258789 c0.5590000152587891,-0.7670000195503235 1.0529999732971191,-1.5809999704360962 1.4850000143051147,-2.3450000286102295 l0.004999999888241291,0.003000000026077032 c0.13699999451637268,-0.24899999797344208 0.27799999713897705,-0.2750000059604645 0.3330000042915344,-0.2750000059604645 c0.04100000113248825,0 0.06499999761581421,0.014000000432133675 0.0729999989271164,0.020999999716877937 c0.05299999937415123,0.052000001072883606 0.06400000303983688,0.2630000114440918 0.07400000095367432,0.4320000112056732 c0.017999999225139618,0.2750000059604645 0.032999999821186066,0.5600000023841858 0.1889999955892563,0.7080000042915344 c0.12099999934434891,0.1080000028014183 0.2290000021457672,0.16200000047683716 0.33000001311302185,0.16200000047683716 c0.2540000081062317,0 0.3610000014305115,-0.3089999854564667 0.47699999809265137,-0.6359999775886536 c0.13500000536441803,-0.38999998569488525 0.289000004529953,-0.8320000171661377 0.6740000247955322,-0.8320000171661377 c0.03500000014901161,0 0.07199999690055847,0.003000000026077032 0.10499999672174454,0.008999999612569809 c0.12099999934434891,0.026000000536441803 0.25600001215934753,0.1509999930858612 0.38499999046325684,0.2720000147819519 c0.15600000321865082,0.1459999978542328 0.3050000071525574,0.2840000092983246 0.4650000035762787,0.2840000092983246 l0.04500000178813934,-0.004000000189989805 c0.10000000149011612,-0.020999999716877937 0.18199999630451202,-0.07800000160932541 0.23600000143051147,-0.16500000655651093 c0.15600000321865082,-0.2540000081062317 0.06800000369548798,-0.7110000252723694 -0.039000000804662704,-1.125 c-0.00800000037997961,-0.032999999821186066 -0.01600000075995922,-0.05900000035762787 -0.019999999552965164,-0.07599999755620956 c-0.032999999821186066,-0.1550000011920929 -0.004000000189989805,-0.29499998688697815 0.08399999886751175,-0.4050000011920929 c0.09600000083446503,-0.11800000071525574 0.25200000405311584,-0.18799999356269836 0.41999998688697815,-0.18799999356269836 c0.2029999941587448,0 0.382999986410141,0.10899999737739563 0.5139999985694885,0.2840000092983246 c0.2619999945163727,0.34700000286102295 0.49399998784065247,0.7200000286102295 0.7269999980926514,1.1030000448226929 c0.40799999237060547,0.6690000295639038 0.8299999833106995,1.3619999885559082 1.4450000524520874,1.9479999542236328 c1.0470000505447388,1.034000039100647 2.7209999561309814,2.1649999618530273 4.343999862670898,2.3320000171661377 C52.390907287597656,12.916999816894531 52.187904357910156,13.543998718261719 51.82190704345703,14.144001007080078 zM60.02690887451172,6.8769989013671875 c-0.14100000262260437,0.16699999570846558 -0.2930000126361847,0.4690000116825104 -0.210999995470047,0.9610000252723694 c0.006000000052154064,0.03799999877810478 0.017999999225139618,0.09600000083446503 0.032999999821186066,0.1679999977350235 c0.0820000022649765,0.39100000262260437 0.296999990940094,1.430999994277954 0.028999999165534973,1.815999984741211 c-0.04899999871850014,0.07100000232458115 -0.11100000143051147,0.10999999940395355 -0.19699999690055847,0.12300000339746475 c-0.14800000190734863,0 -0.38499999046325684,-0.24400000274181366 -0.5960000157356262,-0.45899999141693115 c-0.2680000066757202,-0.27799999713897705 -0.546999990940094,-0.5649999976158142 -0.8830000162124634,-0.6539999842643738 c-0.11699999868869781,-0.026000000536441803 -0.23199999332427979,-0.039000000804662704 -0.3400000035762787,-0.039000000804662704 c-0.9549999833106995,0 -1.3480000495910645,0.9710000157356262 -1.6640000343322754,1.7519999742507935 c-0.1720000058412552,0.42800000309944153 -0.367000013589859,0.9120000004768372 -0.5659999847412109,0.9120000004768372 c-0.04899999871850014,0 -0.164000004529953,-0.02800000086426735 -0.3540000021457672,-0.21699999272823334 c-0.36500000953674316,-0.382999986410141 -0.2849999964237213,-1.7730000019073486 -0.25999999046325684,-2.2300000190734863 c0.009999999776482582,-0.15199999511241913 -0.027000000700354576,-0.27300000190734863 -0.10899999737739563,-0.35899999737739563 c-0.07000000029802322,-0.07599999755620956 -0.16599999368190765,-0.11500000208616257 -0.27900001406669617,-0.11500000208616257 c-0.04899999871850014,0 -0.09799999743700027,0.00800000037997961 -0.15000000596046448,0.023000000044703484 c0.8140000104904175,-1.8079999685287476 1.5160000324249268,-2.9119999408721924 2.0429999828338623,-3.5840001106262207 c0.36500000953674316,-0.3370000123977661 0.7829999923706055,-0.6510000228881836 1.2730000019073486,-0.9369999766349792 c0.6880000233650208,0.1289999932050705 1.3459999561309814,0.4659999907016754 1.934000015258789,0.8939999938011169 c0.47099998593330383,0.4690000116825104 0.9900000095367432,1.0169999599456787 1.4859999418258667,1.5420000553131104 c0.028999999165534973,0.029999999329447746 0.061000000685453415,0.06300000101327896 0.09000000357627869,0.09399999678134918 C60.79890441894531,6.46099853515625 60.296905517578125,6.561000823974609 60.02690887451172,6.8769989013671875 z" id="svg_2" fill="#ffffff" fill-opacity="1"/></g></g></svg>