<?xml version="1.0" encoding="utf-8"?>
<!-- Generator: Adobe Illustrator 22.0.0, SVG Export Plug-In . SVG Version: 6.00 Build 0)  -->
<svg version="1.1" id="Layer_1" xmlns="http://www.w3.org/2000/svg" xmlns:xlink="http://www.w3.org/1999/xlink" x="0px" y="0px"
	 viewBox="0 0 612 612" style="enable-background:new 0 0 612 612;" xml:space="preserve">
<g>
	<g>
		<path d="M562.3,603.5L8.6,49.6C-2.8,38.3-2.8,19.9,8.6,8.5s29.8-11.4,41.1,0l553.7,553.8c11.4,11.4,11.4,29.8,0,41.1
			C592.1,614.8,573.6,614.8,562.3,603.5z"/>
		<path d="M8.5,603.4c-11.4-11.4-11.4-29.8,0-41.1L562.4,8.6c11.4-11.4,29.8-11.4,41.1,0c11.4,11.4,11.4,29.8,0,41.1L49.6,603.4
			C38.3,614.8,19.9,614.8,8.5,603.4z"/>
	</g>
</g>
</svg>
