<?xml version="1.0" encoding="utf-8"?>
<!-- Generator: Adobe Illustrator 22.0.0, SVG Export Plug-In . SVG Version: 6.00 Build 0)  -->
<svg version="1.1" id="Layer_1" xmlns="http://www.w3.org/2000/svg" xmlns:xlink="http://www.w3.org/1999/xlink" x="0px" y="0px"
	 viewBox="0 0 612 612" style="enable-background:new 0 0 612 612;" xml:space="preserve">
<style type="text/css">
	.st0{stroke:#000000;stroke-width:2.5;stroke-miterlimit:10;}
</style>
<g>
	<path class="st0" d="M530.3,458.3V264.1l36.3,32.3c11.3,10,28.5,9,38.5-2.3s9-28.5-2.3-38.5L323.9,7.9c-10.3-9.2-25.9-9.2-36.2,0
		L9.2,255.7c-11.3,10-12.3,27.2-2.3,38.5s27.2,12.3,38.5,2.3l36-32.4v194.2v71c0,45.1,36.5,81.6,81.6,81.6h285.7
		c45.1,0,81.6-36.5,81.6-81.6V458.3z M476,529.3h-0.1c0,15-12.2,27.2-27.2,27.2H163c-15,0-27.2-12.2-27.2-27.2l0.1-71V215.7
		L306,64.7l170.1,151v242.6L476,529.3z"/>
</g>
</svg>
