<?xml version="1.0" encoding="utf-8"?>
<!-- Generator: Adobe Illustrator 22.0.0, SVG Export Plug-In . SVG Version: 6.00 Build 0)  -->
<svg version="1.1" id="Capa_1" xmlns="http://www.w3.org/2000/svg" xmlns:xlink="http://www.w3.org/1999/xlink" x="0px" y="0px"
	 viewBox="0 0 612 612" style="enable-background:new 0 0 612 612;" xml:space="preserve">
<style type="text/css">
	.st0{stroke:#000000;stroke-width:10;stroke-miterlimit:10;}
</style>
<g>
	<g id="_x34__4_">
		<g>
			<path class="st0" d="M601.3,574.2l-155.4-153c40.7-44.3,65.7-102.7,65.7-167C511.6,116.5,398.2,5,258.3,5S5,116.5,5,254.3
				s113.4,249.3,253.3,249.3c60.4,0,115.9-21,159.5-55.7l156,153.5c7.6,7.5,20,7.5,27.5,0C608.9,593.9,608.9,581.7,601.3,574.2z
				 M258.3,465.2C140,465.2,44,370.7,44,254.3S140,43.4,258.3,43.4s214.3,94.4,214.3,210.9S376.6,465.2,258.3,465.2z"/>
		</g>
	</g>
</g>
</svg>
