<?xml version="1.0" encoding="utf-8"?>
<!-- Generator: Adobe Illustrator 22.0.0, SVG Export Plug-In . SVG Version: 6.00 Build 0)  -->
<svg version="1.1" id="Capa_1" xmlns="http://www.w3.org/2000/svg" xmlns:xlink="http://www.w3.org/1999/xlink" x="0px" y="0px"
	 viewBox="0 0 612 612" style="enable-background:new 0 0 612 612;" xml:space="preserve">
<style type="text/css">
	.st0{stroke:#000000;stroke-width:6.5;stroke-miterlimit:10;}
</style>
<g>
	<g id="_x35__27_">
		<g>
			<path class="st0" d="M469.1,375.8c-41.3,0-77.3,21.6-97.9,53.8l-124.7-71.2c8-15.8,13-33.4,13-52.4c0-11.7-2.3-22.8-5.4-33.4
				l129.7-74.1c21.3,23.1,51.4,37.7,85.3,37.7c64.3,0,116.4-52.1,116.4-116.4S533.4,3.2,469.1,3.2S352.6,55.4,352.6,119.7
				c0,11.7,2.3,22.8,5.4,33.4l-129.7,74.1c-21.3-23.1-51.4-37.8-85.3-37.8c-64.3,0-116.4,52.1-116.4,116.4s52.1,116.4,116.4,116.4
				c26.5,0,50.8-9.2,70.3-24.2L213,399l141,80.5c-0.4,4.2-1.3,8.3-1.3,12.6c0,64.3,52.1,116.4,116.4,116.4s116.4-52.1,116.4-116.4
				S533.4,375.8,469.1,375.8z M469.1,49.8c38.6,0,69.8,31.3,69.8,69.8s-31.3,69.8-69.8,69.8s-69.8-31.3-69.8-69.8
				S430.5,49.8,469.1,49.8z M143,375.8c-38.6,0-69.8-31.3-69.8-69.8s31.3-69.8,69.8-69.8s69.8,31.3,69.8,69.8
				C212.8,344.6,181.5,375.8,143,375.8z M469.1,562.1c-38.6,0-69.8-31.3-69.8-69.8s31.3-69.8,69.8-69.8s69.8,31.3,69.8,69.8
				C538.9,530.9,507.6,562.1,469.1,562.1z"/>
		</g>
	</g>
</g>
</svg>
