<?xml version="1.0" encoding="utf-8"?>
<!-- Generator: Adobe Illustrator 22.0.0, SVG Export Plug-In . SVG Version: 6.00 Build 0)  -->
<svg version="1.1" id="Layer_1" xmlns="http://www.w3.org/2000/svg" xmlns:xlink="http://www.w3.org/1999/xlink" x="0px" y="0px"
	 viewBox="0 0 612 612" style="enable-background:new 0 0 612 612;" xml:space="preserve">
<g>
	<path d="M398.1,298l42.1,42.1L333.6,446.6c-37.8,37.8-103.2,25.4-148.5-19.8c-45.1-45.1-57.6-110.7-20-148.3l106.7-106.7l42.1,42.1
		L207.3,320.5c-9.6,9.6-3.9,38.9,20.6,63.5c24.8,24.8,53.9,30.3,63.6,20.5L398.1,298z"/>
	<path d="M483,297.2l-42.1-42.1l106.6-106.6c9.7-9.7,4.2-38.9-20.5-63.6c-24.6-24.6-54-30.2-63.5-20.6L356.8,171l-42.1-42.1
		L421.5,22.2c37.7-37.7,103.3-25.1,148.3,20c45.3,45.3,57.6,110.7,19.8,148.5L483,297.2z"/>
	<path d="M399.4,170.4c11.7-11.7,30.5-11.8,42.2-0.1c11.6,11.6,11.8,30.3-0.1,42.2l-85.9,85.9c-11.7,11.7-30.5,11.8-42.2,0.1
		c-11.6-11.6-11.8-30.3,0.1-42.2L399.4,170.4z"/>
</g>
<path d="M612,332v203.5c0,42.2-34.3,76.5-76.5,76.5h-459C34.3,612,0,577.7,0,535.5v-459C0,34.3,34.3,0,76.5,0h232.9
	c19.4,3,32.5,20.5,30.4,38c-1.8,14.8-14.2,27.3-30.4,29.5H107.5c-22.1,0-40,17.9-40,40v397c0,22.1,17.9,40,40,40h397
	c22.1,0,40-17.9,40-40V332.1c4.1-13.5,15-23.6,28-25.6C589,303.8,606.1,314.4,612,332z"/>
</svg>
