<?xml version="1.0" encoding="utf-8"?>
<!-- Generator: Adobe Illustrator 22.0.0, SVG Export Plug-In . SVG Version: 6.00 Build 0)  -->
<svg version="1.1" id="Layer_1" xmlns="http://www.w3.org/2000/svg" xmlns:xlink="http://www.w3.org/1999/xlink" x="0px" y="0px"
	 viewBox="0 0 612 612" style="enable-background:new 0 0 612 612;" xml:space="preserve">
<g>
	<g transform="translate(-424.000000, -219.000000)">
		<path d="M733.4,286.8v0.2H559.7c-37.2,0-67.7,30.5-67.7,67.8v340.4c0,37.4,30.4,67.8,67.8,67.8h340.4c37.4,0,67.8-30.5,67.8-68
			V558.2h0c0.4-18.4,15.5-33.2,34-33.2s33.6,14.8,34,33.2h0V695c0,75.1-60.9,136-135.8,136H559.8c-75,0-135.8-60.9-135.8-135.8
			V354.8c0-75,61.1-135.8,135.7-135.8h173.7v0.2c17.2,1.7,30.6,16.2,30.6,33.8S750.6,285.1,733.4,286.8z M818.6,528.7l42.1,42.1
			L754.1,677.3c-37.8,37.8-103.2,25.4-148.5-19.8c-45.1-45.1-57.6-110.7-20-148.3l106.7-106.7l42.1,42.1L627.8,551.2
			c-9.6,9.6-3.9,38.9,20.6,63.5c24.8,24.8,53.9,30.3,63.6,20.5L818.6,528.7z M903.5,527.9l-42.1-42.1l106.6-106.6
			c9.7-9.7,4.2-38.9-20.5-63.6c-24.6-24.6-54-30.2-63.5-20.6L777.3,401.7l-42.1-42.1L842,252.9c37.7-37.7,103.3-25.1,148.3,20
			c45.3,45.3,57.6,110.7,19.8,148.5L903.5,527.9z M819.9,401.1c11.7-11.7,30.5-11.8,42.2-0.1c11.6,11.6,11.8,30.3-0.1,42.2
			l-85.9,85.9c-11.7,11.7-30.5,11.8-42.2,0.1c-11.6-11.6-11.8-30.3,0.1-42.2L819.9,401.1z"/>
	</g>
</g>
</svg>
