<?xml version="1.0" encoding="utf-8"?>
<!-- Generator: Adobe Illustrator 22.0.0, SVG Export Plug-In . SVG Version: 6.00 Build 0)  -->
<svg version="1.1" id="Capa_1" xmlns="http://www.w3.org/2000/svg" xmlns:xlink="http://www.w3.org/1999/xlink" x="0px" y="0px"
	 viewBox="0 0 612 612" style="enable-background:new 0 0 612 612;" xml:space="preserve">
<g>
	<g id="_x39__24_">
		<g>
			<path d="M326.4,289.4V183.6c0-11.3-9.1-20.4-20.4-20.4s-20.4,9.1-20.4,20.4v105.8c-23.7,8.4-40.8,30.8-40.8,57.4
				c0,33.8,27.4,61.2,61.2,61.2s61.2-27.4,61.2-61.2C367.2,320.2,350.1,297.8,326.4,289.4z M326.2,82.6c0-0.3,0.2-0.7,0.2-1V40.8
				H408c11.3,0,20.4-9.1,20.4-20.4S419.3,0,408,0H204c-11.3,0-20.4,9.1-20.4,20.4s9.1,20.4,20.4,20.4h81.6v40.8c0,0.4,0.2,0.7,0.2,1
				c-137,10.4-245,124.5-245,264.2C40.8,493.3,159.5,612,306,612s265.2-118.7,265.2-265.2C571.2,207.2,463.2,93,326.2,82.6z
				 M306,571.2c-123.9,0-224.4-100.5-224.4-224.4S182.1,122.4,306,122.4s224.4,100.5,224.4,224.4S429.9,571.2,306,571.2z"/>
		</g>
	</g>
</g>
</svg>
